<svg xmlns="http://www.w3.org/2000/svg" viewBox="0 0 1024 1024" width="256" height="256" fill="#b57cff" stroke="none">
<g transform="translate(0,1024) scale(0.1,-0.1)">
      <path d="M3070 7659 c-135 -20 -312 -100 -427 -191 -77 -61 -233 -237 -233 -263 0 -3 -11 -22 -23 -43 -13 -20 -26 -46 -30 -57 -3 -11 -16 -49 -30 -85 -58 -157 -71 -404 -28 -555 12 -44 26 -93 30 -110 14 -51 96 -204 119 -218 6 -4 12 -13 12 -19 0 -20 164 -173 228 -212 75 -47 75 -48 17 -172 -25 -52 -45 -97 -45 -99 0 -3 -13 -33 -29 -67 -15 -35 -43 -103 -61 -153 -17 -49 -36 -99 -40 -110 -38 -95 -100 -303 -135 -455 -15 -63 -33 -135 -40 -160 -14 -47 -40 -181 -76 -400 -21 -130 -17 -193 17 -221 8 -6 14 -16 14 -21 0 -23 227 -301 342 -418 97 -99 264 -251 347 -314 65 -50 260 -186 267 -186 2 0 23 -12 47 -27 176 -113 538 -278 782 -356 188 -60 254 -75 555 -127 361 -63 769 -50 1145 34 33 8 87 19 120 26 33 8 68 17 78 22 10 5 44 16 75 24 31 8 73 20 92 28 19 8 76 28 125 46 50 17 105 38 123 46 17 8 48 21 67 29 85 36 116 51 216 100 58 29 124 64 147 79 23 14 44 26 47 26 2 0 31 17 62 37 32 21 66 42 75 48 66 39 319 229 388 291 120 110 367 379 415 454 12 19 32 44 44 54 11 11 21 23 21 29 0 5 13 26 30 47 40 50 53 112 40 197 -28 185 -42 266 -60 348 -11 50 -25 113 -31 140 -31 144 -100 394 -124 450 -7 17 -18 46 -23 65 -12 40 -39 115 -51 145 -5 11 -18 47 -31 80 -12 33 -33 83 -45 110 -12 28 -26 61 -30 75 -4 14 -25 60 -46 102 -50 99 -49 110 4 141 67 40 190 149 232 208 73 101 87 123 119 193 73 160 90 249 83 435 -6 144 -21 219 -72 346 -101 255 -340 470 -620 560 -101 32 -310 45 -432 26 -240 -38 -516 -223 -646 -433 -50 -81 -57 -84 -121 -60 -266 101 -496 148 -793 163 -395 20 -669 -16 -1022 -134 -146 -49 -154 -51 -165 -33 -133 222 -332 390 -536 454 -19 6 -57 18 -84 27 -62 19 -306 28 -396 14z m365 -309 c149 -46 266 -133 360 -265 46 -65 44 -76 -12 -104 -295 -143 -657 -496 -846 -823 -33 -57 -42 -58 -102 -12 -184 140 -275 327 -275 567 0 441 450 769 875 637z m3755 -1 c211 -68 354 -202 438 -411 36 -91 37 -96 37 -223 0 -175 -20 -248 -101 -375 -55 -87 -118 -153 -184 -194 -63 -40 -61 -40 -97 22 -174 304 -542 665 -822 806 -30 15 -51 33 -51 42 0 21 33 75 79 133 35 43 184 161 204 161 5 0 28 9 51 19 134 62 295 69 446 20z m-1720 -325 c231 -36 393 -81 575 -159 17 -7 55 -24 85 -36 30 -13 90 -44 133 -69 43 -25 92 -53 110 -63 18 -9 59 -38 92 -62 33 -25 77 -56 97 -70 52 -35 276 -259 330 -330 152 -202 321 -493 417 -720 12 -27 26 -58 31 -67 6 -10 10 -22 10 -28 0 -6 9 -29 19 -53 10 -23 22 -51 25 -62 3 -11 16 -49 29 -85 29 -77 30 -82 50 -140 17 -49 63 -213 83 -300 7 -30 20 -84 28 -120 36 -151 46 -202 66 -329 21 -135 21 -135 -17 -190 -21 -31 -45 -63 -53 -71 -8 -9 -28 -34 -43 -57 -30 -43 -282 -304 -357 -369 -223 -192 -479 -353 -750 -472 -19 -8 -51 -23 -71 -33 -53 -27 -216 -89 -234 -89 -22 0 -19 20 10 62 14 20 25 45 25 55 0 10 7 28 15 40 18 26 49 125 64 203 36 197 21 453 -51 815 -100 508 -184 712 -369 897 -64 64 -202 168 -223 168 -4 0 -25 9 -49 20 -263 121 -643 113 -904 -19 -253 -127 -404 -328 -507 -676 -15 -49 -31 -103 -36 -120 -11 -35 -42 -184 -70 -332 -85 -455 -71 -769 47 -1011 25 -51 42 -96 39 -99 -7 -8 -90 18 -151 47 -22 10 -76 33 -120 51 -182 76 -386 190 -585 330 -179 126 -501 425 -568 529 -9 14 -34 50 -57 80 -22 30 -46 65 -52 78 -28 48 -10 180 73 547 28 125 37 157 95 345 37 118 90 264 119 325 5 11 21 48 35 83 23 57 56 130 118 262 57 122 201 358 274 448 24 30 43 58 43 63 0 18 267 277 340 330 400 291 764 428 1250 469 129 11 424 3 540 -16z m-120 -1949 c30 -10 59 -21 64 -26 6 -5 17 -9 26 -9 26 0 139 -78 190 -132 90 -94 172 -285 225 -523 14 -66 30 -136 35 -155 72 -282 93 -704 43 -855 -110 -334 -393 -510 -823 -509 -202 0 -307 22 -450 92 -183 90 -335 283 -375 477 -40 192 4 663 90 960 8 28 24 84 35 125 12 41 25 84 29 95 5 11 21 53 37 93 15 40 36 83 46 94 10 12 18 26 18 32 1 19 93 113 154 155 66 46 142 78 231 97 84 19 351 11 425 -11z"></path>
      <path d="M4010 5698 c-169 -86 -146 -327 37 -387 120 -39 263 68 263 198 0 152 -166 256 -300 189z"></path>
      <path d="M6043 5699 c-177 -86 -134 -365 61 -394 132 -20 262 109 240 238 -24 143 -171 219 -301 156z"></path>
      <path d="M5025 4724 c-284 -28 -425 -125 -425 -293 0 -111 110 -254 276 -357 116 -72 105 -42 102 -284 -3 -218 -3 -218 -28 -239 -53 -43 -163 -9 -185 57 -9 28 -68 62 -108 62 -126 0 -182 -106 -120 -228 71 -140 253 -223 409 -187 38 8 93 27 121 42 53 26 53 26 110 -4 189 -100 438 -29 528 150 29 59 31 82 10 135 -19 46 -56 76 -107 86 -49 9 -89 -12 -153 -80 -63 -67 -115 -75 -166 -25 -29 29 -29 29 -29 233 0 112 4 208 8 213 4 6 39 31 77 56 269 177 356 381 223 525 -39 42 -95 78 -153 96 -79 26 -308 50 -390 42z"></path>
    </g>
</svg>