<svg xmlns="http://www.w3.org/2000/svg" viewBox="0 0 1024 1024" width="256" height="256" fill="#ff5a5a" stroke="none">
<g transform="translate(0,1024) scale(0.1,-0.1)">
      <path d="M3408 7955 c-123 -83 -228 -532 -207 -885 5 -81 5 -148 0 -153 -20 -20 -209 62 -269 117 -68 62 -85 113 -91 282 -5 133 -8 155 -26 174 -81 89 -224 52 -254 -66 -14 -55 -14 -208 0 -276 46 -224 154 -348 399 -457 44 -20 158 -50 271 -72 56 -11 56 -11 89 -87 18 -42 38 -84 45 -92 6 -8 28 -44 50 -80 21 -36 42 -67 45 -70 4 -3 12 -14 18 -25 49 -95 299 -350 422 -431 53 -35 51 -51 -16 -104 -31 -25 -78 -69 -105 -99 -57 -64 -67 -63 -109 16 -42 80 -46 87 -123 185 -278 356 -732 551 -1217 522 -185 -11 -231 -35 -249 -129 -13 -67 3 -268 30 -385 12 -52 25 -115 30 -140 5 -24 14 -49 19 -54 6 -6 10 -17 10 -25 0 -15 95 -214 122 -256 220 -340 617 -577 990 -590 62 -2 117 -4 121 -4 4 -1 5 -40 2 -88 -12 -164 44 -439 132 -648 53 -126 133 -283 165 -324 10 -13 18 -29 18 -37 0 -7 3 -14 8 -16 8 -4 52 -64 52 -73 0 -5 53 -83 89 -131 9 -12 23 -32 31 -44 8 -12 33 -47 55 -76 22 -30 56 -75 75 -101 19 -27 55 -73 81 -103 182 -216 268 -333 278 -381 18 -82 88 -200 159 -268 292 -281 801 -292 1104 -25 90 79 188 236 188 300 0 30 31 90 70 132 58 64 333 404 412 511 98 133 288 434 288 457 0 4 6 15 14 23 7 9 26 45 41 81 15 36 31 74 36 85 32 74 73 212 95 315 17 82 34 319 26 370 -6 43 6 49 102 43 84 -5 202 12 287 41 24 9 49 16 56 16 13 0 178 78 238 112 195 113 382 306 491 508 108 201 160 394 170 640 6 129 5 137 -18 179 -43 79 -68 86 -313 85 -278 -1 -440 -32 -645 -126 -261 -118 -513 -359 -629 -600 -29 -62 -44 -61 -104 6 -27 30 -73 74 -103 98 -30 23 -54 50 -54 59 0 8 37 44 83 80 167 131 311 280 398 414 65 102 66 103 105 185 19 41 41 86 47 100 11 21 30 29 112 52 172 45 228 64 301 101 249 125 354 313 342 609 -6 129 -15 154 -71 188 -68 42 -162 14 -199 -60 -14 -28 -18 -61 -18 -161 0 -149 -19 -202 -98 -266 -46 -37 -57 -44 -132 -76 -144 -61 -139 -67 -133 155 7 221 -10 353 -77 593 -13 49 -60 177 -76 207 -44 85 -185 91 -242 11 -34 -50 -33 -80 8 -203 81 -239 93 -311 94 -540 1 -279 -21 -375 -135 -617 -21 -46 -44 -83 -49 -83 -6 0 -28 11 -48 25 -20 14 -40 25 -44 25 -9 0 -69 40 -108 73 -16 14 -41 47 -56 74 -25 47 -26 52 -19 168 4 70 2 131 -3 145 -45 116 -196 125 -267 17 -14 -22 -19 -55 -23 -147 -11 -270 58 -398 306 -565 45 -30 72 -55 70 -64 -5 -27 -207 -181 -315 -241 -41 -23 -41 -23 -185 23 -274 86 -415 107 -743 107 -326 0 -501 -26 -769 -112 -129 -41 -129 -41 -170 -18 -89 51 -203 131 -250 174 -27 25 -53 46 -58 46 -4 0 -8 10 -8 23 1 16 20 34 78 72 111 72 211 174 253 260 34 70 34 70 34 241 0 195 -9 226 -76 263 -64 37 -119 23 -177 -44 -32 -35 -32 -35 -30 -169 1 -156 -13 -199 -87 -264 -72 -63 -165 -117 -184 -105 -31 20 -77 113 -126 258 -54 160 -60 202 -60 410 0 242 29 397 107 579 24 56 29 79 25 120 -10 107 -129 162 -219 101z m-823 -1896 c195 -27 366 -89 513 -187 49 -32 186 -160 218 -203 38 -52 94 -142 94 -151 0 -6 6 -19 13 -27 8 -9 23 -41 34 -71 68 -185 67 -184 44 -233 -11 -23 -26 -59 -35 -79 -19 -47 -38 -52 -169 -45 -384 19 -742 303 -866 687 -12 36 -26 79 -31 95 -5 17 -16 71 -24 120 -13 79 -13 91 0 102 16 12 85 9 209 -8z m5292 -5 c10 -26 -38 -265 -58 -290 -5 -6 -15 -29 -23 -52 -69 -194 -251 -417 -420 -514 -156 -89 -278 -128 -422 -135 -137 -7 -182 0 -193 30 -5 12 -19 48 -31 81 -23 58 -23 58 -1 110 11 28 21 57 21 64 0 14 85 187 116 237 42 68 139 177 202 228 71 57 196 137 216 137 6 0 20 7 31 16 87 66 543 137 562 88z m-2535 -235 c145 -10 395 -56 422 -78 6 -5 27 -12 46 -16 91 -19 360 -181 360 -217 0 -4 -15 -14 -32 -22 -182 -78 -337 -198 -488 -375 -114 -134 -243 -373 -298 -556 -89 -292 -126 -507 -138 -807 -4 -90 -11 -169 -17 -175 -13 -18 -163 -18 -174 -1 -4 7 -9 69 -10 138 -4 179 -32 420 -63 555 -69 299 -93 372 -177 540 -109 221 -256 397 -454 545 -70 52 -211 130 -235 130 -16 0 -25 39 -11 50 133 108 256 171 432 222 39 11 91 26 118 34 41 11 150 25 302 37 94 8 274 6 417 -4z m1065 -624 c17 -33 32 -68 32 -77 1 -9 7 -29 15 -45 73 -144 98 -522 47 -713 -26 -96 -81 -249 -116 -320 -15 -30 -31 -64 -36 -75 -6 -11 -24 -43 -42 -72 -18 -28 -46 -76 -64 -105 -36 -60 -164 -245 -185 -268 -8 -8 -25 -31 -38 -50 -23 -33 -144 -187 -173 -220 -8 -8 -17 -23 -20 -32 -12 -33 -42 -20 -75 31 -42 64 -123 143 -196 189 -59 37 -59 37 -53 262 10 404 94 770 233 1020 7 14 20 39 28 56 8 17 22 36 30 44 9 7 16 17 16 22 0 34 192 234 273 285 23 15 58 37 78 50 45 30 179 83 199 80 8 -1 29 -29 47 -62z m-2415 16 c200 -89 382 -264 489 -469 10 -18 22 -38 27 -45 14 -18 91 -203 102 -245 5 -20 16 -62 25 -92 16 -56 20 -73 49 -235 39 -222 60 -615 34 -646 -7 -8 -33 -28 -58 -44 -64 -41 -144 -119 -186 -181 -19 -30 -39 -54 -44 -54 -5 0 -44 44 -87 98 -451 558 -642 954 -643 1332 0 148 34 368 70 445 5 11 23 55 40 98 39 94 50 97 182 38z m1285 -1952 c26 -7 59 -20 72 -31 13 -10 29 -18 36 -18 30 0 132 -110 160 -171 74 -166 23 -313 -145 -412 -218 -130 -500 -103 -657 64 -148 158 -93 412 113 529 100 56 282 73 421 39z"></path>
      <path d="M6006 4630 c-159 -48 -198 -266 -66 -372 125 -99 325 -13 338 146 13 156 -125 270 -272 226z"></path>
      <path d="M4085 4622 c-200 -94 -155 -387 62 -400 132 -9 225 75 226 202 1 92 -29 137 -130 194 -40 23 -114 25 -158 4z"></path>
      <path d="M4999 3091 c-133 -6 -166 -17 -190 -63 -31 -57 -2 -163 61 -226 147 -147 237 -183 334 -135 67 34 212 183 226 231 26 95 -21 163 -132 190 -48 12 -77 12 -299 3z"></path>
    </g>
</svg>