<svg xmlns="http://www.w3.org/2000/svg" viewBox="0 0 1024 1024" width="256" height="256" fill="#ffd23c" stroke="none">
<g transform="translate(0,1024) scale(0.1,-0.1)">
      <path d="M4969 7657 c-198 -83 -360 -247 -428 -433 -28 -77 -28 -77 -132 -114 -108 -39 -281 -115 -359 -158 -25 -14 -61 -34 -80 -45 -247 -138 -552 -416 -726 -662 -332 -469 -488 -949 -488 -1500 0 -328 42 -554 158 -860 23 -60 26 -79 20 -135 -19 -196 122 -369 369 -452 22 -7 84 -52 145 -106 330 -289 730 -490 1132 -567 153 -29 203 -35 380 -45 727 -39 1324 167 1857 640 47 42 88 68 136 86 105 40 156 72 223 139 96 95 118 146 121 280 1 92 6 119 26 165 161 364 207 879 117 1328 -140 701 -530 1275 -1124 1651 -120 77 -243 139 -446 226 -120 52 -162 114 -163 242 0 65 4 81 38 146 52 103 35 161 -55 187 -100 29 -364 -57 -479 -155 -67 -57 -72 -56 -56 7 32 121 -60 188 -186 135z m497 -363 c4 -208 105 -337 339 -434 479 -198 850 -512 1107 -940 330 -547 415 -1227 226 -1810 -27 -84 -31 -88 -71 -67 -41 21 -118 48 -232 82 -497 146 -746 297 -938 567 -94 133 -106 143 -175 142 -32 0 -81 -9 -112 -21 -153 -57 -372 -89 -550 -80 -154 9 -263 29 -455 87 -123 36 -150 24 -262 -122 -227 -293 -439 -423 -918 -563 -87 -26 -188 -60 -224 -76 -78 -36 -80 -35 -113 76 -102 343 -115 699 -39 1071 159 776 695 1401 1433 1672 61 23 59 24 92 -38 27 -50 56 -81 93 -96 136 -58 217 82 115 199 -11 12 -17 45 -20 102 -5 95 23 174 88 248 41 47 44 47 64 -10 54 -155 120 -233 196 -233 44 0 66 21 111 105 17 33 47 80 67 104 40 49 149 134 166 128 6 -2 11 -39 12 -93z m-791 -2752 c192 -51 270 -62 450 -62 151 0 283 16 410 51 144 39 129 43 220 -66 227 -273 526 -451 947 -564 346 -93 415 -162 284 -283 -160 -149 -593 -217 -1511 -238 -1072 -24 -1794 32 -2110 163 -163 68 -217 179 -121 252 45 33 84 48 299 109 456 131 708 284 952 577 75 89 74 88 180 61z m-550 -1394 c246 -21 1821 -17 2029 5 201 21 208 17 88 -50 -308 -173 -655 -266 -1042 -280 -425 -14 -785 61 -1125 234 -159 81 -207 121 -132 109 17 -3 100 -11 182 -18z"></path>
      <path d="M6107 5396 c-175 -63 -214 -347 -66 -481 107 -96 245 -60 321 85 32 63 33 205 1 265 -31 59 -89 112 -141 129 -55 19 -66 19 -115 2z"></path>
      <path d="M3964 5368 c-93 -63 -137 -206 -101 -329 64 -218 308 -242 400 -39 34 75 30 200 -8 275 -63 123 -187 162 -291 93z"></path>
      <path d="M4613 4301 c-70 -32 -103 -124 -68 -191 26 -49 61 -70 123 -70 117 0 182 133 110 225 -42 53 -99 66 -165 36z"></path>
      <path d="M5510 4302 c-55 -29 -86 -99 -70 -156 44 -158 270 -140 270 21 0 113 -107 185 -200 135z"></path>
    </g>
</svg>