<svg xmlns="http://www.w3.org/2000/svg" viewBox="0 0 1024 1024" width="256" height="256" fill="#8a6dff" stroke="none">
<g transform="translate(0,1024) scale(0.1,-0.1)">
      <path d="M7110 7869 c-271 -23 -600 -165 -911 -391 -78 -57 -74 -56 -140 -17 -299 176 -697 259 -1097 229 -326 -25 -552 -89 -781 -224 -34 -20 -66 -36 -71 -36 -5 0 -63 35 -127 79 -501 334 -918 438 -1266 313 -287 -103 -555 -396 -790 -867 -143 -286 -190 -449 -190 -650 1 -201 62 -351 228 -560 184 -232 255 -353 330 -570 150 -430 442 -743 755 -807 214 -44 383 22 578 227 51 53 96 94 101 90 14 -8 81 -133 81 -150 0 -29 -141 -317 -216 -442 -112 -186 -218 -330 -339 -463 -120 -131 -132 -158 -99 -222 36 -70 81 -85 199 -64 233 41 465 130 645 246 87 57 245 195 300 263 71 89 68 94 105 -148 64 -410 18 -492 -284 -510 -136 -8 -191 -56 -191 -169 0 -64 25 -412 36 -506 14 -120 52 -144 244 -155 638 -34 1132 213 1403 701 107 191 175 394 251 747 8 38 17 71 19 74 3 2 43 -35 89 -83 221 -231 515 -385 865 -454 129 -25 165 -20 208 31 54 64 43 125 -38 209 -214 223 -426 552 -563 873 -37 89 -37 89 -15 125 12 20 29 52 38 70 9 17 21 32 26 32 5 0 46 -38 90 -85 296 -318 616 -334 950 -50 164 139 281 326 412 660 93 238 115 276 324 544 118 151 172 250 203 374 67 266 -57 672 -340 1112 -301 467 -616 660 -1022 624z m-3872 -280 c73 -18 238 -80 290 -109 209 -116 352 -206 352 -223 0 -6 -24 -35 -53 -66 -29 -31 -65 -72 -79 -91 -31 -39 -17 -44 -208 66 -301 172 -614 191 -847 52 -168 -100 -279 -293 -210 -362 37 -37 48 -34 123 33 219 195 504 221 772 70 88 -49 192 -118 192 -126 0 -5 -7 -21 -16 -38 -181 -346 -223 -904 -105 -1390 27 -109 78 -280 100 -330 4 -11 16 -37 25 -58 22 -52 23 -49 -38 -131 -161 -218 -300 -299 -447 -262 -236 61 -418 293 -590 751 -61 163 -118 259 -269 450 -201 255 -233 323 -232 495 2 242 198 661 466 994 212 264 459 352 774 275z m4109 10 c261 -62 507 -331 732 -800 109 -227 145 -364 139 -521 -5 -137 -42 -215 -193 -408 -186 -237 -226 -306 -343 -600 -101 -252 -154 -341 -282 -471 -248 -252 -436 -249 -654 11 -68 81 -106 137 -106 158 0 7 20 68 44 135 217 601 219 1184 6 1654 -17 36 -30 69 -30 73 0 18 219 146 300 176 138 50 301 59 411 23 92 -30 129 -51 219 -124 87 -70 116 -79 150 -45 56 56 -14 206 -145 310 -255 203 -625 182 -996 -56 -38 -24 -75 -44 -82 -44 -20 0 -169 168 -165 187 9 48 353 241 538 303 174 57 325 71 457 39z m-1898 -189 c501 -92 845 -370 1032 -835 149 -369 134 -900 -39 -1373 -44 -119 -131 -302 -144 -302 -5 0 -19 24 -32 54 -48 109 -188 118 -242 15 -23 -46 -16 -81 61 -274 l68 -170 -94 -87 c-52 -48 -97 -88 -101 -88 -12 0 -9 56 7 155 19 115 19 149 -1 190 -33 69 -137 85 -195 29 -35 -34 -44 -61 -59 -194 -66 -576 -170 -1030 -292 -1275 -206 -412 -565 -626 -1057 -629 -171 -1 -157 -18 -162 186 -4 133 -4 133 26 136 119 10 203 40 285 101 190 143 224 400 120 921 -68 341 -87 441 -116 614 -24 147 -99 210 -192 162 -78 -40 -88 -82 -56 -253 14 -75 24 -143 22 -151 -3 -17 -138 94 -191 158 -26 31 -26 32 -10 68 65 148 132 321 133 344 2 150 -198 174 -256 30 -11 -29 -23 -55 -27 -58 -9 -9 -42 49 -88 156 -22 52 -44 104 -49 115 -5 11 -23 63 -40 115 -231 714 -121 1374 299 1791 216 213 505 334 896 373 100 10 384 -4 494 -24z m-1373 -3237 c46 -43 84 -84 84 -90 0 -19 -166 -183 -245 -241 -78 -58 -250 -150 -261 -140 -3 4 36 71 89 150 87 132 130 204 201 346 14 28 31 52 37 52 6 0 48 -35 95 -77z m2215 5 c49 -101 109 -210 125 -229 8 -8 14 -19 14 -23 0 -5 34 -58 76 -118 42 -60 74 -112 71 -114 -10 -10 -187 90 -269 151 -86 65 -249 228 -247 249 0 13 169 154 185 155 5 1 26 -32 45 -71z"></path>
      <path d="M4061 5990 c-153 -36 -180 -251 -41 -329 143 -80 319 71 256 220 -34 82 -128 129 -215 109z"></path>
      <path d="M6054 5981 c-137 -62 -150 -234 -25 -318 46 -31 137 -32 190 -2 193 108 37 412 -165 320z"></path>
      <path d="M4990 5194 c-266 -50 -320 -80 -320 -180 0 -101 102 -150 220 -105 131 50 324 50 454 1 95 -37 172 -15 202 55 43 104 -8 163 -181 210 -59 16 -320 29 -375 19z"></path>
      <path d="M4965 4795 c-148 -34 -195 -61 -215 -122 -16 -47 -4 -87 35 -122 49 -42 88 -47 176 -21 98 30 211 30 296 1 92 -31 135 -28 179 12 55 50 60 120 12 172 -67 74 -325 117 -483 80z"></path>
    </g>
</svg>