<svg xmlns="http://www.w3.org/2000/svg" viewBox="0 0 1024 1024" width="256" height="256" fill="#ff6fb5" stroke="none">
<g transform="translate(0,1024) scale(0.1,-0.1)">
      <path d="M3085 7784 c-50 -26 -66 -46 -100 -119 -57 -123 -156 -476 -175 -620 -45 -341 -51 -696 -16 -920 9 -55 23 -149 32 -210 10 -60 32 -168 51 -240 46 -172 49 -192 30 -213 -9 -10 -72 -128 -140 -262 -249 -490 -298 -585 -312 -601 -8 -8 -15 -19 -15 -22 0 -4 -12 -26 -27 -50 -36 -56 -50 -78 -63 -102 -6 -11 -19 -33 -30 -50 -82 -125 -45 -196 135 -265 39 -15 31 -33 -40 -91 -80 -67 -107 -117 -96 -177 9 -48 39 -85 79 -100 109 -41 272 -107 347 -142 121 -55 431 -209 475 -236 19 -11 89 -49 155 -84 152 -79 196 -104 375 -205 80 -46 170 -96 200 -112 84 -46 134 -74 145 -83 6 -4 46 -27 90 -50 44 -24 159 -91 256 -150 287 -174 412 -218 644 -227 211 -8 399 39 567 141 29 18 64 39 78 47 13 8 46 29 72 47 97 65 233 145 428 250 36 19 144 79 240 132 96 54 203 113 238 131 35 19 89 48 120 65 31 18 107 57 167 89 61 31 117 61 125 66 70 41 509 241 650 295 182 70 197 183 42 314 -23 19 -42 43 -42 53 0 18 68 56 101 57 20 0 65 48 79 85 19 50 2 99 -74 212 -103 155 -195 317 -293 518 -29 61 -58 117 -63 125 -5 8 -46 87 -90 175 -45 88 -91 175 -102 193 -23 38 -22 55 14 187 88 321 103 448 103 880 0 379 -10 485 -71 726 -8 35 -19 80 -24 99 -28 112 -81 272 -116 351 -32 71 -86 109 -156 109 -89 0 -352 -151 -553 -318 -276 -228 -551 -521 -739 -787 -44 -62 -43 -61 -160 -41 -281 50 -562 53 -951 9 -77 -8 -151 -16 -164 -17 -18 -1 -35 12 -65 52 -198 254 -483 563 -643 695 -23 19 -50 43 -60 52 -20 21 -241 185 -248 185 -3 0 -26 15 -52 34 -27 19 -95 57 -152 85 -112 55 -155 62 -206 35z m322 -435 c324 -243 616 -544 829 -855 90 -133 138 -176 184 -167 268 53 575 78 825 68 160 -7 207 -12 385 -40 231 -38 236 -36 315 74 63 88 73 101 117 158 18 23 51 66 73 94 22 29 51 65 65 80 14 15 46 51 72 80 70 81 191 202 308 311 120 110 198 172 331 263 86 58 105 58 120 3 6 -24 17 -59 25 -78 7 -19 16 -51 19 -70 4 -19 15 -73 25 -120 69 -319 86 -652 49 -990 -15 -141 -98 -528 -118 -555 -5 -5 -13 -36 -19 -69 -13 -65 -18 -51 101 -281 26 -51 43 -93 38 -98 -5 -5 -32 -2 -63 6 -200 58 -564 44 -768 -29 -106 -39 -171 -66 -220 -91 -213 -113 -421 -323 -527 -532 -18 -36 -38 -73 -43 -81 -5 -8 -20 -40 -33 -70 -14 -30 -34 -75 -45 -100 -60 -134 -162 -440 -202 -600 -34 -140 -24 -131 -135 -128 -108 2 -111 4 -124 74 -6 27 -22 87 -36 134 -15 47 -33 105 -40 130 -77 263 -235 622 -340 775 -139 201 -392 395 -611 470 -25 8 -55 20 -65 25 -103 56 -543 75 -723 31 -49 -12 -91 -19 -93 -17 -10 9 9 67 33 101 13 20 24 40 24 46 0 5 18 42 41 82 48 84 48 114 4 262 -26 86 -54 203 -75 310 -60 302 -50 919 19 1205 27 110 66 248 79 282 11 28 11 28 56 4 24 -13 89 -57 143 -97z m293 -2460 c109 -16 304 -92 347 -135 8 -8 19 -14 25 -14 11 0 96 -67 144 -115 40 -39 133 -158 155 -199 50 -91 149 -297 149 -310 0 -8 8 -29 17 -48 30 -60 33 -67 42 -105 5 -21 18 -63 29 -93 19 -52 41 -124 82 -270 56 -200 54 -187 42 -253 -13 -70 -6 -114 26 -167 12 -19 27 -46 32 -60 19 -43 162 -173 229 -207 105 -54 164 -38 299 82 154 138 207 244 177 358 -11 44 -10 58 17 160 16 62 33 130 38 152 6 22 17 56 24 75 8 19 29 82 47 140 60 190 190 483 254 573 111 154 194 237 305 303 169 101 346 147 565 147 205 0 313 -16 508 -76 84 -26 87 -28 126 -99 77 -143 96 -178 144 -261 27 -48 54 -90 58 -93 27 -16 6 -43 -53 -69 -173 -75 -198 -97 -198 -171 0 -70 22 -103 101 -151 19 -12 43 -31 53 -42 22 -24 6 -37 -99 -76 -64 -25 -320 -143 -355 -164 -8 -5 -55 -31 -105 -56 -167 -87 -303 -160 -435 -233 -25 -13 -74 -41 -110 -60 -36 -20 -83 -46 -105 -58 -22 -12 -76 -41 -120 -64 -44 -24 -92 -51 -107 -61 -14 -11 -29 -19 -32 -19 -3 0 -40 -20 -82 -45 -41 -25 -77 -45 -79 -45 -5 0 -151 -90 -250 -155 -323 -208 -629 -224 -910 -45 -16 11 -46 29 -65 40 -19 11 -64 38 -99 60 -34 22 -65 40 -67 40 -3 0 -32 18 -65 40 -33 22 -62 40 -65 40 -2 0 -32 17 -66 38 -35 21 -120 68 -190 105 -70 37 -156 84 -190 105 -35 21 -94 56 -133 77 -38 20 -124 67 -190 104 -289 158 -602 313 -767 377 -63 25 -65 37 -16 76 103 81 128 113 128 158 0 81 -34 116 -167 169 -93 37 -113 54 -95 79 28 41 168 281 198 338 37 72 49 83 120 109 230 84 484 109 734 74z"></path>
      <path d="M3289 7106 c-99 -68 -80 -153 79 -341 4 -6 31 -44 60 -85 28 -41 69 -100 91 -130 45 -63 218 -310 242 -346 66 -100 94 -104 202 -34 75 49 77 51 77 90 0 30 -9 53 -35 90 -19 27 -35 52 -35 55 0 3 -17 28 -37 55 -21 27 -67 90 -103 140 -36 50 -88 123 -117 163 -28 39 -61 84 -72 99 -12 14 -21 31 -21 37 0 6 -4 11 -8 11 -5 0 -23 23 -41 50 -18 28 -58 77 -90 110 -54 58 -58 60 -106 60 -37 0 -60 -7 -86 -24z"></path>
      <path d="M6794 7120 c-25 -10 -85 -77 -152 -171 -26 -37 -81 -113 -122 -170 -41 -57 -78 -112 -82 -121 -4 -10 -11 -18 -17 -18 -5 0 -11 -8 -15 -17 -3 -10 -26 -45 -51 -78 -25 -33 -49 -70 -55 -82 -5 -11 -14 -24 -20 -28 -5 -3 -19 -23 -30 -43 -11 -20 -31 -55 -45 -77 -43 -72 -33 -94 71 -155 109 -64 120 -60 201 62 37 55 76 108 86 117 9 8 17 19 17 24 0 7 74 118 132 196 15 20 44 61 64 91 59 86 150 212 180 248 54 67 49 142 -14 200 -37 34 -97 43 -148 22z"></path>
      <path d="M3776 4495 c-56 -30 -66 -41 -97 -105 -71 -149 89 -316 259 -270 89 23 142 98 142 199 -1 154 -167 250 -304 176z"></path>
      <path d="M6262 4499 c-182 -92 -123 -375 81 -387 202 -11 298 230 144 360 -65 54 -151 65 -225 27z"></path>
    </g>
</svg>