<svg xmlns="http://www.w3.org/2000/svg" viewBox="0 0 1024 1024" width="256" height="256" fill="#45c98a" stroke="none">
<g transform="translate(0,1024) scale(0.1,-0.1)">
      <path d="M3083 7515 c-640 -116 -940 -845 -564 -1371 60 -82 60 -82 34 -156 -37 -109 -109 -255 -216 -440 -265 -457 -352 -709 -364 -1053 -12 -359 85 -612 331 -863 467 -479 1351 -819 2341 -901 1626 -135 3232 468 3540 1329 41 115 56 203 62 350 9 229 -32 426 -145 705 -32 77 -150 301 -222 420 -144 238 -265 503 -244 537 4 6 29 40 55 75 276 364 196 914 -173 1194 -451 340 -1073 196 -1327 -308 -35 -70 -36 -71 -142 -106 -492 -165 -1147 -183 -1719 -47 -233 55 -272 74 -310 151 -111 219 -285 371 -513 449 -144 49 -284 60 -424 35z m335 -275 c458 -153 570 -738 201 -1052 -195 -166 -474 -190 -704 -62 -27 16 -82 60 -120 99 -218 218 -239 552 -52 801 153 203 439 294 675 214z m3722 9 c214 -69 362 -214 429 -419 116 -352 -137 -737 -513 -779 -478 -55 -826 429 -625 868 69 149 239 290 399 329 25 6 54 14 65 16 33 8 207 -2 245 -15z m-2912 -609 c523 -144 1214 -147 1720 -8 80 21 150 37 157 34 8 -3 14 -39 18 -103 32 -560 657 -932 1194 -711 40 16 79 28 88 26 9 -2 31 -39 51 -88 46 -114 74 -167 194 -370 313 -533 398 -875 302 -1230 -126 -470 -876 -931 -1817 -1119 -676 -134 -1352 -134 -2050 0 -776 149 -1461 506 -1715 895 -109 167 -145 306 -137 524 11 291 95 527 343 956 95 165 147 270 194 387 12 31 25 57 27 57 3 0 45 -16 94 -35 556 -223 1143 135 1205 735 6 64 11 80 20 80 2 0 53 -13 112 -30z"></path>
      <path d="M3101 6990 c-157 -58 -236 -171 -236 -335 0 -224 168 -379 394 -363 124 9 247 94 299 206 39 83 39 221 0 304 -34 73 -104 142 -176 176 -78 36 -203 41 -281 12z"></path>
      <path d="M6880 7001 c-214 -66 -319 -306 -221 -506 162 -329 657 -240 688 123 18 218 -144 393 -362 391 -44 0 -91 -4 -105 -8z"></path>
      <path d="M4605 5686 c-93 -40 -128 -163 -74 -253 111 -182 355 -128 336 73 -14 139 -147 230 -262 180z"></path>
      <path d="M5470 5689 c-191 -80 -176 -361 20 -361 96 0 210 113 210 208 0 109 -130 195 -230 153z"></path>
      <path d="M2743 4530 c-68 -41 -82 -134 -27 -191 31 -32 239 -138 394 -199 58 -23 114 -46 125 -51 150 -63 571 -175 830 -219 28 -5 88 -16 135 -24 914 -160 2046 -49 2875 281 175 70 368 168 412 209 77 73 18 214 -90 214 -13 0 -80 -26 -148 -58 -182 -86 -188 -89 -301 -133 -144 -58 -368 -127 -573 -178 -638 -158 -1480 -190 -2130 -80 -506 85 -924 210 -1281 385 -141 69 -171 75 -221 44z"></path>
    </g>
</svg>