<svg xmlns="http://www.w3.org/2000/svg" viewBox="0 0 1024 1024" width="256" height="256" fill="#ff6f8f" stroke="none">
<g transform="translate(0,1024) scale(0.1,-0.1)">
      <path d="M5043 7878 c-18 -13 -74 -86 -124 -163 -164 -253 -193 -295 -202 -295 -4 0 -92 79 -194 175 -227 213 -263 230 -343 157 -29 -26 -41 -51 -177 -369 -32 -73 -61 -133 -66 -133 -4 0 -116 54 -248 120 -258 129 -286 137 -346 100 -47 -28 -52 -42 -94 -289 -52 -303 -46 -281 -77 -281 -15 0 -126 11 -247 25 -300 34 -318 34 -360 -8 -53 -53 -53 -65 5 -343 28 -139 49 -257 46 -263 -4 -5 -75 -32 -159 -60 -376 -124 -401 -137 -414 -213 -4 -31 2 -50 37 -115 24 -43 55 -100 70 -128 58 -106 170 -325 179 -348 9 -22 2 -36 -53 -109 -102 -137 -254 -353 -291 -414 -57 -94 -50 -127 63 -274 35 -46 66 -90 69 -97 3 -7 -14 -52 -37 -100 -96 -200 -126 -321 -117 -473 36 -594 795 -1178 1910 -1470 1133 -296 2380 -175 3372 328 643 326 997 730 1022 1163 8 141 -11 226 -89 394 -84 182 -88 148 32 305 97 127 85 162 -165 505 -95 131 -155 221 -155 235 0 16 240 458 272 501 12 16 23 49 26 78 8 88 -15 102 -316 200 -139 46 -255 88 -258 95 -3 7 10 82 27 166 17 85 33 166 36 180 3 14 11 57 19 95 18 97 2 150 -57 181 -38 19 -68 18 -355 -11 -136 -14 -251 -22 -255 -18 -5 5 -22 98 -39 208 -42 279 -41 277 -57 308 -8 15 -28 37 -46 47 -60 37 -88 29 -352 -102 -160 -79 -249 -118 -255 -112 -9 9 -105 227 -184 417 -41 98 -109 137 -183 105 -18 -7 -113 -88 -212 -180 -99 -93 -186 -168 -194 -168 -8 0 -26 17 -40 38 -30 44 -181 278 -221 342 -54 87 -138 115 -203 68z m207 -550 c145 -222 156 -234 216 -244 58 -8 71 0 260 176 91 85 173 155 182 155 14 0 102 -186 183 -385 34 -83 128 -116 204 -70 17 10 117 62 224 115 211 106 205 105 216 26 3 -25 18 -122 32 -216 41 -277 41 -277 374 -234 123 16 235 29 248 29 29 0 30 8 -28 -273 -55 -262 -49 -278 133 -337 237 -77 342 -114 353 -124 9 -8 -1 -33 -44 -106 -100 -169 -203 -378 -203 -410 0 -34 36 -111 72 -156 13 -16 53 -72 88 -124 35 -52 97 -141 137 -198 82 -115 84 -125 45 -175 -135 -170 -145 -221 -67 -362 124 -222 149 -318 121 -460 -50 -258 -233 -483 -585 -719 -140 -94 -146 -95 -115 -21 161 385 79 1096 -187 1628 -21 43 -39 83 -39 91 0 7 27 37 61 66 151 131 223 286 223 480 0 288 -196 526 -484 586 -232 49 -501 -66 -632 -268 -26 -40 -36 -48 -53 -43 -377 120 -697 83 -1003 -114 -34 -23 -64 -41 -66 -41 -2 0 -35 19 -72 42 -291 177 -630 228 -916 138 -92 -29 -102 -27 -139 26 -351 511 -1154 245 -1116 -370 10 -166 72 -291 206 -417 l83 -78 -62 -138 c-245 -538 -315 -1119 -183 -1524 19 -60 33 -112 30 -116 -14 -13 -280 172 -397 276 -268 239 -383 534 -295 756 27 69 119 260 134 280 37 47 16 120 -64 233 -33 46 -66 93 -74 105 -13 21 -7 32 86 162 298 417 283 394 283 443 0 49 -22 96 -164 355 -41 76 -77 146 -78 155 -3 16 145 70 404 147 37 11 68 29 90 52 44 46 43 90 -15 343 -24 107 -41 198 -37 203 3 4 116 -6 249 -22 277 -33 301 -31 349 30 6 9 28 112 47 230 41 248 42 249 61 249 17 0 164 -74 299 -150 179 -100 260 -95 308 18 58 137 136 322 146 349 27 68 28 68 215 -111 272 -258 270 -259 476 57 74 114 138 207 141 207 4 0 66 -91 139 -202z m-1618 -1550 c55 -29 148 -116 148 -137 0 -12 -3 -15 -105 -90 -96 -70 -210 -182 -296 -291 -38 -49 -70 -80 -81 -80 -28 0 -99 78 -133 146 -41 80 -44 213 -6 284 99 187 301 259 473 168z m3227 23 c198 -62 294 -284 203 -472 -29 -61 -116 -159 -141 -159 -5 0 -29 28 -54 63 -90 126 -229 260 -369 356 -59 40 -59 50 -2 111 102 109 227 143 363 101z m-2256 -257 c134 -29 259 -86 373 -171 109 -81 153 -88 229 -33 152 111 263 166 400 200 103 26 316 24 410 -3 188 -55 284 -108 444 -241 300 -251 542 -730 637 -1261 28 -155 26 -480 -3 -595 -53 -209 -188 -431 -312 -513 -105 -69 -650 -220 -961 -266 -515 -76 -1029 -71 -1500 15 -268 49 -691 165 -835 229 -57 25 -156 125 -216 217 -212 328 -211 835 3 1413 263 715 800 1122 1331 1009z"></path>
      <path d="M4165 4493 c-187 -42 -210 -294 -33 -368 189 -79 348 161 205 310 -52 53 -109 72 -172 58z"></path>
      <path d="M5965 4486 c-112 -41 -160 -187 -94 -288 101 -154 334 -94 347 90 9 140 -125 244 -253 198z"></path>
      <path d="M4941 3818 c-202 -28 -280 -149 -199 -305 37 -70 104 -145 178 -198 69 -50 69 -50 69 -121 1 -86 -10 -99 -82 -99 -47 0 -52 3 -96 52 -72 81 -140 92 -201 32 -89 -89 19 -272 190 -324 81 -24 187 -17 263 18 57 26 57 26 106 1 63 -33 166 -44 244 -27 208 46 330 274 187 348 -59 31 -143 6 -168 -49 -16 -36 -67 -59 -114 -53 -60 8 -68 20 -68 102 0 72 0 72 48 105 158 111 254 268 222 365 -28 85 -111 138 -242 155 -89 11 -251 11 -337 -2z"></path>
    </g>
</svg>