<svg xmlns="http://www.w3.org/2000/svg" viewBox="0 0 1024 1024" width="256" height="256" fill="#37c0e6" stroke="none">
<g transform="translate(0,1024) scale(0.1,-0.1)">
      <path d="M2520 7743 c-511 -51 -1002 -367 -1190 -765 -40 -85 -46 -118 -25 -161 22 -46 56 -62 127 -60 32 1 58 -2 58 -6 0 -4 -23 -43 -51 -86 -147 -233 -203 -421 -204 -685 0 -230 42 -392 116 -452 46 -37 111 -40 163 -9 49 31 53 27 61 -41 40 -379 322 -729 525 -653 82 31 84 30 114 -16 93 -140 259 -249 381 -249 24 0 46 -4 50 -10 3 -5 -1 -65 -10 -134 -81 -657 180 -1174 762 -1509 98 -56 267 -134 376 -173 743 -263 1553 -301 2330 -108 669 166 1131 466 1361 886 131 238 185 586 142 907 -19 137 -18 141 41 141 49 0 156 44 217 89 48 36 91 81 168 174 23 29 23 29 88 7 119 -40 227 7 342 150 93 115 181 334 203 500 10 72 10 73 54 51 187 -96 301 97 287 484 -8 245 -74 449 -215 666 -23 35 -41 67 -41 72 0 5 24 5 54 2 102 -13 156 50 132 154 -9 37 -91 182 -140 246 -200 264 -536 475 -880 555 -625 145 -1216 -106 -1485 -629 -29 -56 -56 -101 -60 -101 -5 0 -38 11 -73 24 -349 132 -715 191 -1173 191 -439 0 -734 -45 -1114 -170 -79 -26 -147 -43 -151 -38 -4 4 -27 44 -50 88 -142 269 -352 460 -628 574 -182 75 -460 115 -662 94z m400 -253 c47 -12 94 -25 105 -29 122 -51 160 -70 224 -109 157 -96 281 -235 366 -407 30 -60 57 -122 60 -136 23 -93 107 -121 215 -71 159 73 401 139 710 193 255 44 663 53 921 19 307 -40 520 -94 784 -197 190 -75 217 -67 266 72 115 327 374 567 716 663 90 25 113 27 273 27 193 0 257 -9 416 -61 226 -73 475 -234 594 -385 50 -63 50 -69 1 -69 -125 0 -202 -76 -177 -174 3 -14 35 -58 69 -98 184 -213 276 -408 308 -657 12 -94 -1 -265 -21 -285 -5 -5 -34 2 -70 17 -101 44 -176 31 -211 -36 -7 -11 -15 -73 -20 -136 -15 -213 -88 -424 -183 -525 -53 -57 -71 -58 -148 -6 -106 71 -145 57 -228 -81 -86 -145 -189 -231 -276 -233 -30 0 -58 4 -63 9 -13 14 -94 343 -88 359 3 8 31 15 75 19 211 17 448 156 596 347 214 276 273 693 145 1019 -92 232 -281 420 -501 499 -162 57 -386 39 -552 -45 -198 -98 -402 -314 -414 -435 -6 -64 43 -118 105 -118 57 1 76 16 150 120 376 525 1042 274 1043 -393 0 -277 -104 -499 -309 -652 -142 -107 -386 -162 -422 -95 -4 8 -36 103 -70 210 -93 296 -109 322 -196 322 -53 0 -88 -27 -103 -80 -8 -30 -1 -60 51 -221 389 -1189 419 -1721 122 -2140 -436 -614 -1708 -927 -2828 -695 -485 100 -817 243 -1081 464 -532 447 -548 1073 -65 2452 39 111 40 148 4 188 -37 41 -94 50 -140 21 -44 -28 -70 -83 -148 -323 -37 -114 -73 -213 -81 -219 -21 -17 -155 -5 -231 21 -287 98 -475 392 -476 745 -1 242 64 413 205 540 258 232 626 162 845 -160 68 -101 103 -122 169 -104 79 22 95 109 37 208 -140 237 -408 404 -673 418 -509 27 -884 -446 -816 -1031 52 -450 388 -824 774 -862 91 -9 115 -19 104 -41 -5 -10 -26 -85 -47 -168 -41 -162 -49 -175 -107 -175 -83 0 -174 75 -272 224 -66 101 -96 126 -146 126 -35 0 -106 -40 -125 -69 -15 -26 -65 -11 -108 32 -105 105 -186 353 -187 571 0 66 -27 126 -66 146 -32 18 -122 8 -173 -18 -62 -33 -68 -30 -78 36 -41 290 53 588 265 841 109 130 122 149 122 186 0 78 -59 129 -162 141 -32 4 -58 11 -58 16 0 10 74 94 135 151 99 95 257 194 405 254 102 42 161 57 330 87 67 12 328 -3 410 -24z"></path>
      <path d="M4980 5214 c-258 -55 -429 -275 -497 -637 -26 -136 -26 -633 0 -727 54 -201 163 -317 356 -378 80 -25 98 -27 261 -26 182 0 219 6 339 53 139 56 236 163 284 316 55 174 49 624 -12 855 -104 402 -393 617 -731 544z"></path>
      <path d="M3893 5034 c-162 -80 -163 -313 -2 -394 129 -67 278 40 278 200 1 144 -155 253 -276 194z"></path>
      <path d="M6159 5027 c-98 -52 -138 -190 -85 -296 94 -184 359 -129 374 78 13 174 -146 293 -289 218z"></path>
      <path d="M4553 3374 c-161 -81 32 -348 298 -410 152 -36 383 -35 524 1 176 46 330 169 359 287 15 62 -43 128 -112 128 -46 0 -55 -6 -142 -105 -68 -78 -272 -123 -470 -104 -161 15 -208 40 -323 171 -39 45 -86 56 -134 32z"></path>
    </g>
</svg>