<svg xmlns="http://www.w3.org/2000/svg" viewBox="0 0 1024 1024" width="256" height="256" fill="#b57cff" stroke="none">
<g transform="translate(0,1024) scale(0.1,-0.1)">
      <path d="M3682 8164 c-146 -15 -183 -29 -213 -77 -33 -53 -21 -102 41 -161 28 -27 48 -52 43 -56 -4 -4 -42 -15 -83 -25 -438 -105 -883 -353 -1217 -680 -82 -80 -97 -118 -69 -177 22 -46 48 -59 134 -69 41 -5 77 -10 79 -13 2 -2 -23 -42 -56 -89 -322 -452 -471 -946 -471 -1560 0 -217 4 -233 61 -263 45 -23 91 -18 137 15 22 16 43 34 47 40 3 6 12 11 18 11 9 0 12 -61 13 -238 1 -263 18 -415 73 -633 75 -298 194 -613 254 -667 64 -60 150 -34 198 61 16 31 33 57 37 57 4 -1 37 -62 73 -138 132 -272 325 -520 593 -760 166 -149 187 -164 242 -164 77 -2 122 51 123 145 1 20 5 37 9 37 5 0 48 -32 96 -70 306 -245 675 -438 1108 -579 159 -51 179 -51 342 4 433 144 841 364 1125 607 30 26 59 44 63 42 4 -3 8 -29 8 -57 0 -81 46 -127 125 -127 48 0 89 29 247 174 268 246 466 507 598 789 25 53 50 96 56 97 6 0 21 -22 33 -50 47 -104 137 -133 203 -67 48 48 142 284 218 547 76 266 99 422 107 748 3 133 9 242 12 242 4 0 22 -13 41 -28 93 -77 178 -67 216 24 23 55 2 449 -37 693 -27 171 -91 414 -138 526 -102 240 -202 421 -318 573 -40 53 -36 62 25 62 99 0 147 28 162 93 17 79 -22 129 -240 308 -320 262 -627 420 -1009 520 -62 16 -118 32 -123 35 -5 3 14 28 41 54 49 47 51 51 51 104 0 75 -33 109 -122 125 -234 40 -665 41 -888 1 -216 -38 -406 -94 -563 -164 -71 -32 -81 -32 -149 -2 -371 164 -868 230 -1356 180z m693 -259 c210 -33 390 -85 608 -179 59 -25 118 -46 131 -46 13 0 75 22 138 49 268 115 454 163 737 191 139 14 331 13 331 -1 0 -6 -14 -31 -32 -56 -23 -34 -31 -58 -31 -89 0 -83 44 -115 183 -134 346 -45 719 -183 985 -365 175 -119 179 -125 116 -143 -79 -24 -118 -101 -88 -175 9 -19 53 -82 99 -139 318 -393 471 -783 534 -1365 8 -74 5 -75 -66 -32 -93 57 -176 47 -216 -26 -16 -31 -17 -41 -3 -152 21 -177 19 -605 -4 -753 -29 -181 -116 -503 -145 -532 -5 -5 -23 13 -42 42 -41 65 -67 82 -124 82 -80 0 -108 -30 -151 -162 -90 -274 -211 -488 -418 -738 -70 -85 -175 -192 -187 -192 -4 0 -10 21 -14 48 -12 92 -55 132 -139 132 -48 -1 -48 0 -164 -107 -251 -231 -427 -356 -668 -479 -178 -91 -527 -233 -612 -250 -67 -13 -496 155 -738 289 -222 123 -420 273 -632 481 -70 68 -82 74 -137 75 -60 1 -112 -55 -121 -132 -4 -31 -11 -57 -15 -57 -4 0 -45 39 -91 88 -258 268 -414 527 -529 877 -31 94 -64 125 -132 125 -62 0 -93 -20 -133 -89 -16 -28 -33 -51 -36 -51 -18 0 -94 268 -128 455 -44 241 -54 562 -26 824 12 112 12 139 1 166 -38 90 -137 100 -235 24 -49 -38 -54 -29 -47 79 9 113 46 324 81 457 92 343 237 623 476 914 81 98 98 137 79 187 -12 31 -48 74 -62 74 -5 0 -25 7 -45 15 -36 15 -36 15 3 46 275 223 684 394 1069 449 134 19 181 36 204 74 34 55 22 136 -28 180 -11 11 -21 26 -21 34 0 20 336 11 485 -13z"></path>
      <path d="M3261 7049 c-140 -24 -240 -78 -357 -194 -155 -155 -212 -317 -192 -550 16 -188 127 -361 305 -475 125 -79 115 -63 96 -150 -27 -128 -23 -376 10 -531 82 -390 356 -888 735 -1338 66 -78 82 -104 92 -149 41 -186 203 -377 374 -442 15 -5 31 -31 50 -78 99 -255 317 -394 656 -422 362 -30 649 98 778 347 23 44 42 90 42 101 0 19 47 62 67 62 16 0 125 79 171 123 90 86 165 217 192 335 9 41 26 69 74 125 220 260 462 620 568 846 198 420 242 684 181 1077 -5 30 -1 33 64 69 85 48 216 177 267 263 199 344 29 804 -350 945 -188 70 -358 62 -534 -24 -70 -34 -102 -58 -179 -136 -94 -95 -94 -95 -165 -69 -345 121 -709 41 -1045 -232 -50 -41 -30 -47 -182 55 -357 241 -666 293 -991 167 -48 -18 -48 -18 -113 53 -164 179 -386 260 -614 222z m183 -259 c82 -13 159 -55 212 -113 24 -27 44 -52 44 -56 0 -4 -22 -24 -49 -44 -140 -107 -307 -314 -423 -526 -16 -29 -18 -30 -49 -19 -46 16 -139 114 -174 183 -28 56 -30 68 -30 170 0 133 20 186 107 280 99 107 220 149 362 125z m3484 0 c109 -26 244 -133 289 -230 86 -186 24 -390 -157 -515 -47 -32 -52 -30 -89 43 -73 141 -216 323 -358 452 -45 41 -82 82 -83 91 0 22 73 92 130 123 78 42 180 56 268 36z m-2393 -245 c138 -45 298 -140 453 -272 59 -49 67 -53 115 -53 50 0 57 4 142 72 159 126 307 210 460 260 84 27 253 32 350 9 224 -52 455 -237 627 -500 323 -495 224 -1055 -320 -1816 -59 -82 -111 -150 -117 -150 -5 1 -22 26 -36 55 -55 114 -176 227 -312 290 -62 29 -86 46 -90 62 -22 91 -74 299 -125 498 -34 129 -79 305 -101 391 -47 187 -51 196 -105 219 -89 40 -176 -16 -176 -114 0 -19 54 -248 119 -508 66 -260 117 -476 115 -480 -7 -10 -841 -10 -848 0 -2 4 34 160 80 347 130 528 156 643 149 675 -8 35 -67 90 -98 91 -105 5 -134 -25 -172 -177 -14 -55 -72 -289 -130 -522 -57 -232 -107 -427 -111 -433 -3 -6 -27 -19 -52 -30 -128 -55 -278 -191 -341 -308 -18 -34 -36 -61 -41 -61 -18 0 -172 221 -292 421 -345 570 -411 1001 -217 1409 129 270 394 534 619 616 145 52 314 55 455 9z m9 -2344 c59 -84 256 -253 382 -327 44 -26 44 -26 44 -147 0 -120 0 -120 -43 -161 -72 -69 -233 -136 -328 -136 -283 0 -477 260 -390 523 36 109 115 198 223 254 79 41 80 41 112 -6z m1261 -2 c367 -208 262 -735 -152 -766 -97 -8 -213 28 -316 97 -85 57 -85 57 -94 155 -11 137 -4 154 88 215 117 77 258 198 318 274 60 75 66 76 156 25z m-632 -868 c94 -71 227 -126 370 -156 37 -8 34 -22 -17 -71 -90 -86 -226 -129 -406 -129 -137 0 -207 15 -316 66 -99 47 -173 122 -131 133 6 2 46 11 87 21 91 21 217 80 285 134 63 49 65 49 128 2z"></path>
      <path d="M4042 5615 c-166 -72 -139 -324 40 -364 92 -21 203 40 224 125 40 161 -116 303 -264 239z"></path>
      <path d="M6027 5616 c-186 -69 -144 -350 54 -364 132 -10 211 77 199 218 -9 108 -145 186 -253 146z"></path>
    </g>
</svg>