<svg xmlns="http://www.w3.org/2000/svg" viewBox="0 0 1024 1024" width="256" height="256" fill="#ffd23c" stroke="none">
<g transform="translate(0,1024) scale(0.1,-0.1)">
      <path d="M4780 7910 c-784 -104 -1413 -561 -1810 -1315 -30 -56 -21 -54 -155 -35 -487 68 -958 -282 -1061 -790 -23 -113 -15 -328 16 -450 108 -423 498 -730 929 -730 98 0 115 -8 127 -58 12 -48 84 -229 125 -312 21 -44 39 -82 39 -84 0 -6 81 -142 132 -221 63 -98 154 -216 238 -310 82 -91 89 -104 124 -235 110 -407 500 -780 985 -940 219 -73 399 -100 658 -100 403 0 732 95 1043 303 291 194 537 530 586 802 10 57 24 81 94 160 233 264 427 589 535 900 31 90 31 90 156 96 168 8 301 42 419 107 463 254 654 818 438 1291 -117 257 -373 481 -623 545 -157 40 -261 42 -470 9 -30 -5 -32 -2 -84 99 -468 904 -1428 1403 -2441 1268z m570 -251 c600 -66 1149 -396 1502 -904 168 -241 304 -565 362 -860 88 -449 63 -882 -74 -1296 -66 -197 -213 -481 -324 -623 -35 -45 -31 -50 -70 92 -43 155 -149 350 -265 487 -28 32 -51 64 -51 71 0 6 32 35 71 64 230 171 403 425 477 700 30 114 38 391 14 490 -108 439 -402 751 -822 870 -96 28 -334 38 -448 20 -205 -32 -441 -143 -579 -273 -31 -29 -31 -29 -87 14 -109 87 -133 102 -241 154 -197 95 -316 120 -544 112 -130 -4 -171 -9 -246 -32 -659 -196 -996 -933 -714 -1562 76 -171 205 -330 376 -465 109 -86 115 -94 83 -123 -32 -29 -142 -182 -188 -260 -50 -85 -94 -193 -121 -299 -25 -97 -27 -98 -57 -61 -27 33 -134 192 -134 198 0 2 -18 37 -40 77 -223 406 -325 1014 -251 1497 188 1233 1189 2040 2371 1912z m-856 -1154 c187 -40 322 -117 472 -271 122 -125 175 -126 284 -4 167 189 391 290 638 290 670 -1 1072 -718 736 -1312 -81 -144 -221 -282 -376 -372 -47 -27 -47 -27 -102 8 -593 379 -1454 391 -2033 28 -97 -61 -92 -60 -161 -21 -438 247 -600 763 -380 1209 90 182 280 350 469 414 138 47 319 59 453 31z m-1694 -201 c39 -8 38 -15 -12 -184 -34 -115 -34 -115 -143 -121 -116 -6 -173 -22 -260 -74 -130 -76 -142 -224 -21 -270 53 -20 84 -13 143 33 48 37 92 52 156 52 50 0 50 0 43 -52 -25 -213 -16 -528 19 -732 9 -49 13 -91 10 -95 -13 -12 -141 0 -214 19 -479 132 -679 731 -377 1135 156 210 435 333 656 289z m4889 -19 c195 -50 383 -213 470 -407 158 -352 -5 -796 -352 -959 -122 -57 -300 -88 -313 -54 -3 8 1 65 10 127 28 189 36 369 25 538 -6 85 -11 169 -12 185 -2 30 -2 30 56 29 52 -1 65 -6 134 -53 102 -68 153 -66 217 9 105 125 -93 296 -356 308 -108 5 -108 5 -118 46 -6 22 -22 81 -36 130 -14 49 -23 95 -20 102 10 26 190 26 295 -1z m-2299 -1429 c472 -79 822 -307 1023 -667 147 -263 156 -608 24 -879 -194 -397 -667 -683 -1189 -718 -572 -38 -1064 162 -1361 553 -252 333 -265 788 -33 1138 169 254 488 465 821 543 189 44 540 59 715 30z"></path>
      <path d="M4263 5729 c-18 -5 -49 -26 -69 -45 -146 -147 8 -393 201 -320 230 88 105 434 -132 365z"></path>
      <path d="M5830 5729 c-204 -82 -148 -380 72 -379 144 1 236 182 152 303 -50 71 -149 105 -224 76z"></path>
      <path d="M4602 4590 c-43 -26 -66 -80 -57 -132 8 -47 151 -204 212 -233 54 -26 120 -16 155 24 50 56 36 130 -43 212 -13 14 -42 45 -64 69 -75 82 -137 100 -203 60z"></path>
      <path d="M5475 4582 c-40 -25 -160 -153 -181 -193 -24 -47 -14 -116 21 -146 47 -41 120 -33 192 21 88 67 160 147 168 188 20 106 -106 187 -200 130z"></path>
      <path d="M4065 3622 c-83 -20 -127 -139 -75 -205 39 -49 207 -129 390 -185 58 -18 119 -37 135 -42 138 -42 376 -70 595 -70 324 0 568 44 838 151 265 106 297 129 297 217 0 127 -89 165 -225 97 -217 -109 -442 -174 -682 -196 -140 -13 -490 -7 -583 11 -205 38 -398 101 -550 181 -75 39 -109 49 -140 41z"></path>
    </g>
</svg>