<svg xmlns="http://www.w3.org/2000/svg" viewBox="0 0 1024 1024" width="256" height="256" fill="#9aa4ad" stroke="none">
<g transform="translate(0,1024) scale(0.1,-0.1)">
      <path d="M2935 7660 c-67 -27 -93 -95 -141 -360 -44 -248 2 -607 102 -789 33 -59 31 -77 -19 -178 -80 -166 -137 -318 -184 -493 -73 -278 -86 -385 -87 -740 -1 -304 0 -320 28 -475 31 -179 84 -387 121 -480 14 -34 25 -64 25 -68 0 -3 18 -44 40 -91 22 -47 40 -87 40 -90 0 -9 122 -219 157 -269 168 -242 457 -524 648 -631 17 -9 44 -25 60 -36 297 -189 737 -325 1170 -360 628 -51 1270 113 1750 448 229 159 484 428 610 644 6 9 25 43 44 75 152 260 258 557 306 867 44 279 39 733 -11 966 -8 36 -19 88 -24 115 -21 105 -115 404 -146 463 -7 15 -14 31 -14 36 0 5 -25 60 -56 121 -56 112 -56 112 -30 169 14 31 26 61 26 67 0 6 6 23 14 37 8 15 24 59 35 97 67 225 69 466 5 764 -36 165 -72 207 -172 199 -60 -5 -58 -4 -162 -127 -101 -121 -401 -361 -450 -361 -9 0 -34 11 -54 25 -31 21 -157 91 -224 124 -94 46 -213 94 -352 141 -84 28 -301 77 -445 100 -117 19 -164 20 -460 18 -389 -4 -518 -21 -805 -106 -195 -58 -413 -154 -565 -251 -95 -60 -106 -62 -156 -26 -245 181 -366 288 -428 380 -49 74 -128 104 -196 75z m2585 -381 c184 -27 384 -76 510 -124 42 -16 62 -25 160 -69 65 -30 134 -71 137 -83 3 -9 -106 -83 -123 -83 -2 0 -21 -11 -42 -23 -36 -23 -113 -65 -312 -170 -326 -171 -558 -329 -673 -457 -25 -28 -51 -50 -58 -50 -7 0 -44 30 -83 68 -103 98 -144 131 -225 187 -101 69 -121 82 -156 100 -16 8 -46 24 -65 36 -19 12 -78 44 -130 72 -52 28 -117 63 -145 78 -27 15 -93 49 -145 77 -211 110 -260 141 -260 162 0 27 179 113 353 171 164 54 437 111 632 133 97 11 493 -5 625 -25z m-2299 -170 c74 -62 135 -115 137 -119 2 -4 -26 -36 -60 -71 -35 -35 -86 -90 -112 -122 -28 -33 -56 -57 -65 -55 -15 3 -19 16 -46 148 -23 113 -19 330 5 330 4 0 68 -50 141 -111z m3945 56 c8 -43 -2 -179 -22 -293 -22 -133 -39 -148 -94 -84 -18 20 -62 69 -99 107 -85 88 -89 98 -48 127 52 36 170 134 191 157 31 34 64 28 72 -14z m-449 -432 c160 -163 247 -274 331 -425 53 -95 41 -93 -69 13 -46 45 -102 94 -124 108 -22 14 -56 38 -75 53 -19 15 -46 31 -60 37 -14 6 -32 15 -40 20 -50 30 -174 76 -257 96 -90 21 -92 34 -13 74 34 17 91 51 128 76 37 25 70 45 75 45 4 0 51 -44 104 -97z m-3072 78 c5 -10 158 -96 206 -117 55 -24 42 -44 -36 -59 -181 -32 -402 -155 -560 -311 -47 -47 -89 -83 -92 -80 -26 26 185 325 346 488 82 83 119 105 136 79z m705 -435 c244 -64 466 -226 612 -447 64 -96 93 -114 173 -107 63 5 76 16 135 103 65 96 288 322 321 325 4 0 33 16 65 35 32 20 108 52 169 72 106 34 116 36 260 37 190 1 370 -39 475 -105 8 -5 25 -13 37 -19 80 -34 209 -147 301 -262 53 -67 142 -233 142 -266 0 -10 5 -23 10 -28 18 -18 51 -235 51 -341 2 -380 -211 -721 -561 -898 -318 -162 -711 -135 -1000 68 -99 70 -290 291 -290 336 0 5 -17 22 -37 37 -79 60 -183 32 -239 -63 -89 -153 -260 -310 -424 -390 -119 -58 -159 -69 -293 -84 -608 -67 -1128 397 -1127 1005 1 363 158 650 471 861 36 25 68 45 72 45 3 0 31 11 60 25 30 13 76 29 102 35 26 6 56 15 66 21 57 30 341 34 449 5z m-1440 -1393 c81 -259 272 -518 483 -656 146 -96 194 -122 275 -151 26 -10 56 -21 67 -26 11 -5 58 -18 105 -29 307 -72 528 -54 808 66 45 19 88 33 95 30 6 -3 35 -49 63 -103 221 -422 245 -455 332 -440 50 8 81 44 145 166 31 58 67 125 81 150 14 25 29 52 33 60 3 8 26 50 51 93 49 85 59 90 120 58 72 -37 89 -43 212 -77 432 -120 893 9 1230 346 58 58 123 132 146 165 47 70 164 306 164 332 0 6 7 16 15 23 21 17 21 -102 0 -225 -26 -148 -67 -349 -74 -360 -4 -5 -13 -30 -20 -55 -12 -46 -17 -58 -45 -123 -9 -21 -16 -43 -16 -49 0 -13 -92 -200 -137 -278 -22 -40 -49 -81 -110 -170 -95 -138 -395 -430 -442 -430 -6 0 -11 -4 -11 -9 0 -32 -351 -211 -531 -271 -480 -161 -883 -185 -1379 -83 -212 43 -532 166 -685 263 -16 11 -46 28 -65 39 -110 60 -350 270 -449 393 -224 276 -399 663 -451 998 -6 41 -15 100 -21 130 -21 125 -23 260 -5 260 3 0 10 -17 16 -37z m2247 -450 c15 -21 45 -54 66 -75 44 -45 43 -40 7 -103 -29 -51 -74 -141 -91 -182 -16 -42 -35 -23 -84 85 -27 59 -54 114 -62 123 -7 8 -13 21 -13 28 0 13 130 161 142 161 4 0 20 -17 35 -37z"></path>
      <path d="M4120 5901 c-206 -36 -377 -188 -431 -383 -111 -397 273 -761 661 -628 36 13 77 31 92 41 14 11 30 19 36 19 20 0 140 130 171 185 89 157 80 376 -22 530 -108 165 -327 267 -507 236z m157 -306 c56 -23 93 -80 93 -145 0 -64 -18 -99 -69 -134 -102 -71 -233 -7 -247 120 -12 119 109 205 223 159z"></path>
      <path d="M5985 5903 c-54 -7 -174 -53 -217 -82 -57 -39 -141 -127 -168 -177 -11 -21 -25 -46 -29 -54 -61 -110 -56 -335 9 -442 11 -18 23 -40 27 -48 19 -42 146 -160 172 -160 4 0 19 -8 32 -18 60 -45 279 -69 368 -40 185 59 313 180 366 343 24 72 27 215 6 290 -53 195 -229 351 -432 384 -65 11 -80 11 -134 4z m113 -312 c56 -29 85 -88 80 -162 -6 -89 -62 -139 -155 -139 -64 0 -106 27 -137 88 -70 138 75 283 212 213z"></path>
    </g>
</svg>