<svg xmlns="http://www.w3.org/2000/svg" viewBox="0 0 1024 1024" width="256" height="256" fill="#9aa4ad" stroke="none">
<g transform="translate(0,1024) scale(0.1,-0.1)">
      <path d="M2945 7689 c-118 -15 -202 -42 -325 -104 -588 -295 -785 -1041 -404 -1531 84 -109 144 -160 289 -249 14 -9 10 -27 -40 -170 -71 -205 -67 -193 -114 -375 -180 -695 -134 -1229 143 -1655 331 -508 1014 -861 1911 -990 55 -7 143 -20 195 -27 131 -18 895 -18 1040 0 856 105 1443 336 1849 727 252 243 393 505 463 859 26 135 32 491 10 641 -40 268 -108 542 -206 829 -25 73 -46 138 -46 144 0 6 36 36 80 67 404 285 526 770 307 1220 -166 341 -489 576 -844 615 -301 33 -578 -77 -804 -319 -92 -99 -92 -99 -158 -71 -205 86 -410 139 -731 187 -226 34 -670 39 -880 9 -248 -35 -492 -97 -698 -177 -56 -22 -109 -39 -117 -37 -7 2 -40 34 -72 73 -205 245 -538 376 -848 334z m2396 -419 c296 -23 562 -81 849 -185 47 -18 243 -113 300 -147 580 -346 943 -899 1150 -1753 185 -763 94 -1279 -295 -1669 -380 -382 -1020 -624 -1835 -696 -177 -15 -650 -12 -835 5 -900 87 -1597 392 -1929 844 -314 429 -340 1020 -79 1816 193 589 445 987 809 1277 469 375 1156 562 1865 508z m-2059 -115 c91 -23 179 -72 177 -99 0 -6 -42 -41 -92 -78 -189 -139 -372 -333 -515 -546 -32 -48 -61 -92 -63 -97 -15 -37 -93 -155 -103 -155 -14 1 -67 71 -93 125 -45 89 -57 147 -58 260 0 181 52 305 185 435 156 153 355 208 562 155z m3951 -1 c286 -69 490 -372 449 -667 -19 -131 -133 -341 -163 -297 -5 8 -40 66 -77 128 -167 280 -357 489 -638 701 -58 44 -58 44 -36 61 35 29 168 80 230 89 67 10 155 5 235 -15z"></path>
      <path d="M4065 5909 c-86 -13 -107 -20 -210 -69 -216 -105 -454 -335 -611 -590 -185 -299 -179 -607 15 -807 218 -224 550 -266 795 -102 321 214 614 886 532 1219 -60 242 -273 384 -521 349z m13 -594 c164 -69 161 -301 -5 -356 -80 -26 -175 17 -214 98 -72 149 72 319 219 258z"></path>
      <path d="M6025 5910 c-198 -26 -358 -174 -396 -368 -71 -364 255 -1055 578 -1225 345 -181 795 9 890 376 19 76 13 234 -12 317 -58 190 -194 389 -407 597 -237 231 -449 329 -653 303z m226 -592 c111 -38 167 -161 117 -257 -48 -94 -140 -132 -231 -97 -161 61 -154 293 9 351 49 18 63 18 105 3z"></path>
      <path d="M4940 4413 c-92 -7 -216 -24 -250 -36 -145 -48 -209 -197 -139 -327 51 -95 201 -205 367 -266 73 -27 73 -27 70 -112 -3 -86 -3 -86 -37 -109 -65 -44 -190 -25 -246 37 -52 58 -126 59 -176 2 -28 -31 -31 -40 -27 -83 17 -176 332 -280 543 -179 68 33 69 33 100 15 179 -104 487 -47 565 105 34 66 17 134 -42 166 -44 25 -127 7 -141 -29 -9 -24 -107 -67 -152 -67 -22 0 -61 10 -85 23 -44 21 -45 24 -53 81 -12 85 -3 122 31 131 91 22 267 124 341 197 161 158 106 367 -113 424 -101 26 -381 40 -556 27z"></path>
    </g>
</svg>