<svg xmlns="http://www.w3.org/2000/svg" viewBox="0 0 1024 1024" width="256" height="256" fill="#4aa8ff" stroke="none">
<g transform="translate(0,1024) scale(0.1,-0.1)">
      <path d="M4855 7729 c-237 -17 -572 -84 -745 -150 -411 -157 -653 -304 -923 -559 -412 -390 -678 -919 -866 -1720 -79 -337 -112 -795 -76 -1043 120 -811 813 -1401 1920 -1638 141 -30 183 -37 375 -63 717 -99 1528 -4 2125 249 462 195 758 409 1002 725 283 366 375 824 287 1435 -28 196 -34 231 -54 329 -175 832 -568 1520 -1092 1911 -515 386 -1225 576 -1953 524z m645 -253 c757 -111 1313 -450 1699 -1034 144 -219 279 -513 369 -807 29 -96 83 -296 96 -360 3 -16 11 -52 16 -80 14 -65 35 -187 52 -300 23 -162 18 -559 -10 -685 -38 -168 -101 -317 -200 -472 -63 -98 -72 -88 -47 53 57 332 31 926 -61 1349 -8 36 -19 86 -24 111 -41 206 -149 510 -237 668 -224 405 -603 619 -1025 580 -391 -36 -725 -289 -991 -751 -16 -27 -29 -48 -31 -48 -2 0 -27 39 -55 88 -272 461 -647 712 -1063 712 -493 0 -864 -308 -1058 -879 -188 -554 -266 -1331 -186 -1869 7 -46 9 -85 4 -88 -19 -12 -163 246 -206 371 -62 178 -88 405 -72 628 28 370 95 711 210 1057 294 887 807 1420 1600 1665 179 55 331 83 595 109 92 9 525 -3 625 -18z m-1358 -1230 c321 -62 580 -307 802 -759 78 -160 101 -187 161 -187 55 0 83 29 140 145 307 626 680 888 1138 801 253 -49 478 -239 599 -506 46 -102 59 -135 96 -250 232 -716 250 -1680 41 -2104 -41 -83 -77 -118 -194 -187 -703 -419 -1714 -555 -2675 -359 -95 19 -143 31 -305 75 -259 70 -598 225 -777 353 -199 144 -274 872 -167 1617 61 424 176 793 314 1005 182 283 498 419 827 356z"></path>
      <path d="M3934 5351 c-100 -45 -149 -140 -149 -287 0 -96 2 -105 35 -170 47 -91 96 -127 183 -132 57 -4 66 -1 112 30 187 125 151 505 -54 566 -53 16 -79 15 -127 -7z"></path>
      <path d="M6115 5351 c-52 -24 -98 -74 -127 -136 -31 -69 -32 -227 -1 -296 94 -208 313 -213 407 -9 30 66 30 235 0 301 -61 131 -175 188 -279 140z"></path>
      <path d="M4970 4850 c-131 -35 -219 -87 -409 -241 -45 -37 -120 -88 -167 -115 -258 -149 -311 -198 -334 -309 -26 -125 26 -219 152 -275 38 -16 53 -32 79 -76 202 -354 724 -511 1177 -355 197 68 352 185 449 338 40 63 56 79 106 105 125 67 165 172 117 302 -28 73 -102 140 -254 231 -65 39 -170 111 -234 162 -287 227 -472 290 -682 233z m255 -239 c64 -23 157 -82 277 -178 46 -38 112 -86 146 -108 286 -185 286 -184 196 -210 -254 -74 -655 -141 -779 -130 -182 16 -454 63 -615 107 -41 11 -85 22 -97 25 -12 3 -28 12 -34 20 -17 19 -5 29 116 98 142 81 192 116 300 205 147 122 208 160 290 180 57 15 145 10 200 -9z m-390 -833 c191 -29 375 -29 555 2 215 36 200 36 165 5 -90 -78 -284 -138 -450 -139 -139 0 -314 49 -412 116 -47 31 -57 54 -20 44 12 -3 85 -16 162 -28z"></path>
    </g>
</svg>