<svg xmlns="http://www.w3.org/2000/svg" viewBox="0 0 1024 1024" width="256" height="256" fill="#9aa4ad" stroke="none">
<g transform="translate(0,1024) scale(0.1,-0.1)">
      <path d="M2860 8354 c-403 -153 -552 -749 -389 -1558 46 -229 124 -494 194 -661 7 -16 27 -66 45 -109 18 -44 36 -87 41 -95 4 -9 45 -91 89 -183 84 -173 206 -391 329 -587 39 -62 71 -117 71 -122 0 -4 -22 -42 -49 -84 -135 -206 -277 -540 -345 -811 -89 -356 -98 -726 -24 -989 166 -593 701 -1012 1538 -1204 572 -131 1230 -102 1785 77 653 212 1078 586 1242 1092 91 284 81 650 -29 1070 -76 290 -167 502 -349 808 -19 33 -19 35 -2 63 398 643 552 961 693 1429 181 598 190 1171 24 1527 -86 187 -208 303 -368 348 -79 23 -236 16 -318 -14 -521 -191 -1004 -1083 -1233 -2276 -15 -77 -31 -144 -36 -149 -4 -5 -47 0 -101 12 -226 51 -280 57 -568 57 -263 0 -281 -2 -425 -30 -216 -42 -218 -42 -227 20 -53 339 -184 818 -342 1241 -34 91 -146 326 -205 429 -228 396 -443 614 -692 701 -99 34 -256 34 -349 -2z m326 -268 c323 -160 676 -799 889 -1611 34 -131 116 -523 122 -582 6 -62 6 -62 -52 -88 -79 -34 -82 -33 -93 28 -5 28 -20 108 -32 177 -29 161 -82 399 -115 520 -35 123 -113 379 -125 405 -5 11 -32 76 -60 144 -133 322 -268 514 -407 579 -85 40 -226 40 -294 0 -256 -151 -244 -630 34 -1363 95 -249 215 -491 403 -812 30 -50 54 -97 54 -105 0 -8 -21 -34 -46 -58 -45 -45 -45 -45 -68 -17 -78 97 -286 477 -401 732 -103 228 -162 406 -260 783 -83 316 -87 776 -9 1009 90 268 254 360 460 259z m4141 13 c89 -43 176 -182 213 -342 82 -352 32 -817 -147 -1377 -73 -227 -300 -692 -463 -945 -8 -13 -35 -55 -59 -94 -24 -39 -49 -71 -56 -71 -15 0 -105 97 -105 112 0 5 13 28 29 51 46 68 99 158 225 387 145 261 284 602 360 878 143 518 107 856 -102 959 -82 40 -202 40 -282 0 -191 -97 -392 -439 -543 -927 -87 -280 -150 -536 -196 -800 -21 -120 -31 -156 -43 -158 -22 -4 -117 45 -125 64 -17 45 129 659 227 954 64 192 144 403 175 460 8 14 32 61 53 105 268 550 610 855 839 744z m-4084 -707 c147 -143 347 -630 462 -1127 9 -38 20 -88 25 -110 13 -54 65 -330 81 -429 13 -79 13 -79 -31 -117 -25 -22 -49 -39 -55 -39 -14 1 -37 35 -114 168 -313 546 -510 1113 -514 1487 -3 211 45 265 146 167z m3881 16 c72 -111 8 -526 -142 -923 -79 -208 -200 -473 -284 -619 -22 -39 -49 -87 -60 -106 -32 -57 -127 -200 -132 -200 -9 0 -81 51 -88 63 -8 14 -10 3 52 322 122 625 280 1092 452 1342 92 133 166 177 202 121z m-1818 -1678 c896 -84 1505 -610 1778 -1535 213 -722 86 -1236 -394 -1599 -176 -133 -373 -235 -612 -315 -100 -34 -104 -31 -64 47 74 147 94 376 47 552 -97 363 -383 618 -770 685 -481 84 -938 -144 -1120 -559 -91 -208 -86 -499 10 -688 28 -56 18 -60 -69 -29 -636 232 -953 543 -1058 1036 -69 326 47 912 261 1320 113 214 163 291 287 440 390 467 1026 708 1704 645z m-62 -2416 c27 -4 50 -13 53 -21 10 -26 -32 -97 -97 -165 -89 -92 -111 -93 -197 -5 -64 65 -116 148 -107 172 3 8 18 16 32 18 46 7 267 7 316 1z m-573 -176 c55 -108 175 -243 261 -295 28 -17 38 -48 38 -117 -1 -120 -99 -143 -190 -44 -44 47 -51 51 -92 51 -80 0 -139 -67 -122 -139 44 -182 280 -279 467 -192 57 27 57 27 115 0 75 -34 205 -43 280 -18 108 36 202 146 202 236 0 62 -50 110 -115 110 -57 0 -75 -9 -130 -67 -42 -43 -45 -45 -87 -38 -65 11 -68 16 -68 115 0 88 0 88 43 113 91 54 267 256 267 307 0 66 150 -80 217 -211 169 -330 24 -693 -314 -790 -146 -41 -456 -48 -633 -12 -393 78 -561 482 -349 844 40 69 152 189 175 189 8 0 23 -19 35 -42z"></path>
      <path d="M4020 4094 c-149 -65 -162 -282 -20 -354 185 -94 372 120 251 287 -53 73 -152 101 -231 67z"></path>
      <path d="M6007 4095 c-200 -71 -146 -375 65 -375 121 0 198 75 198 193 0 134 -136 228 -263 182z"></path>
    </g>
</svg>