<svg xmlns="http://www.w3.org/2000/svg" viewBox="0 0 1024 1024" width="256" height="256" fill="#c6e04a" stroke="none">
<g transform="translate(0,1024) scale(0.1,-0.1)">
      <path d="M7220 7654 c-14 -2 -56 -9 -95 -15 -249 -40 -599 -220 -909 -467 -118 -94 -118 -94 -215 -63 -129 41 -272 76 -428 103 -204 36 -735 33 -946 -5 -168 -30 -315 -66 -426 -103 -72 -24 -75 -25 -97 -7 -256 206 -494 356 -739 464 -185 81 -465 113 -607 69 -243 -75 -378 -359 -378 -797 0 -308 64 -596 210 -940 27 -65 50 -122 50 -128 0 -5 -32 -75 -71 -155 -62 -127 -170 -375 -208 -480 -7 -19 -17 -44 -22 -55 -4 -11 -35 -94 -68 -185 -116 -321 -178 -465 -231 -540 -11 -15 -25 -48 -32 -73 -12 -45 -11 -48 31 -131 121 -240 342 -503 586 -697 64 -51 262 -189 271 -189 2 0 27 -15 57 -34 326 -208 937 -438 1442 -540 651 -132 1098 -110 1810 89 582 163 1160 448 1441 710 6 5 47 43 91 82 44 40 114 111 154 159 41 47 84 98 97 113 30 33 159 229 200 301 55 100 55 105 -41 291 -46 90 -88 178 -94 194 -6 17 -48 129 -93 250 -46 121 -88 236 -95 255 -36 98 -162 382 -225 508 l-71 144 56 131 c159 368 218 616 219 912 2 432 -136 725 -376 804 -61 19 -197 34 -248 25z m-4170 -268 c129 -28 264 -82 435 -175 91 -50 355 -235 355 -249 0 -4 -29 -22 -65 -40 -66 -32 -66 -32 -143 21 -340 235 -603 290 -745 158 -141 -130 -131 -495 24 -878 12 -30 11 -35 -35 -103 -26 -39 -52 -70 -58 -68 -13 5 -78 178 -108 289 -65 243 -87 512 -56 698 53 314 150 399 396 347z m4345 -5 c224 -103 244 -774 37 -1252 -27 -62 -35 -65 -69 -25 -68 83 -69 93 -30 192 126 322 128 673 4 806 -95 103 -271 96 -500 -18 -93 -47 -208 -118 -268 -165 -45 -35 -56 -36 -120 -4 -88 45 -85 50 106 179 356 239 693 355 840 287z m-1880 -430 c782 -118 1419 -562 1790 -1246 21 -38 41 -74 45 -80 70 -97 377 -825 348 -825 -6 0 -54 37 -107 83 -53 45 -108 91 -123 102 -15 11 -55 42 -90 70 -212 166 -507 369 -690 474 -58 33 -108 61 -111 61 -3 0 -47 20 -98 44 -118 55 -212 89 -314 112 -108 25 -306 25 -388 0 -319 -95 -516 -381 -517 -748 0 -295 126 -573 475 -1043 133 -179 169 -233 204 -302 138 -272 39 -560 -237 -689 -219 -101 -719 -125 -1037 -49 -251 61 -429 239 -442 445 -12 177 48 302 317 660 425 566 529 976 344 1355 -143 294 -433 438 -763 381 -85 -15 -213 -51 -266 -76 -266 -122 -398 -196 -610 -343 -220 -151 -483 -351 -629 -476 -48 -40 -89 -71 -93 -68 -3 4 3 30 15 59 85 223 169 433 194 488 48 102 136 282 156 315 9 17 35 59 56 95 240 407 542 708 926 922 284 158 600 257 920 287 63 6 133 13 155 15 98 10 446 -4 570 -23z m1648 -82 c11 -41 2 -231 -13 -279 -34 -108 -44 -136 -51 -144 -4 -5 -54 34 -111 87 -57 53 -131 117 -165 143 -35 25 -63 50 -63 55 0 14 134 97 220 137 128 60 168 60 183 1z m-3928 2 c104 -49 215 -120 215 -140 0 -9 -29 -37 -64 -64 -35 -26 -109 -91 -165 -144 -58 -55 -106 -92 -111 -87 -4 5 -21 59 -36 119 -31 127 -39 292 -16 334 19 32 83 26 177 -18z m1108 -1371 c334 -54 456 -456 267 -874 -63 -138 -153 -274 -465 -701 -185 -253 -234 -553 -131 -808 16 -38 26 -71 23 -73 -6 -6 -324 108 -474 169 -395 162 -760 398 -989 639 -130 137 -281 348 -272 381 9 36 465 424 773 658 132 100 363 263 450 318 39 24 87 55 107 68 148 92 413 206 528 226 47 8 125 7 183 -3z m1753 -5 c210 -44 500 -194 854 -444 225 -158 698 -547 902 -740 92 -88 92 -74 8 -200 -284 -427 -769 -759 -1459 -997 -172 -60 -228 -74 -219 -56 64 124 83 202 82 342 -1 224 -57 354 -289 670 -376 512 -491 777 -445 1026 58 313 267 460 566 399z"></path>
      <path d="M4938 3770 c-260 -47 -317 -222 -137 -424 129 -144 280 -212 392 -175 119 38 263 162 317 273 71 145 6 276 -157 316 -60 15 -352 22 -415 10z"></path>
      <path d="M3995 4860 c-82 -19 -137 -80 -151 -168 -17 -106 88 -222 201 -222 66 0 149 67 173 139 46 135 -85 283 -223 251z"></path>
      <path d="M6141 4863 c-107 -22 -178 -159 -136 -261 55 -130 213 -168 315 -76 145 131 14 377 -179 337z"></path>
    </g>
</svg>