<svg xmlns="http://www.w3.org/2000/svg" viewBox="0 0 1024 1024" width="256" height="256" fill="#34d0c3" stroke="none">
<g transform="translate(0,1024) scale(0.1,-0.1)">
      <path d="M3452 8129 c-50 -10 -74 -39 -132 -156 -99 -201 -165 -409 -207 -648 -13 -76 -17 -157 -17 -335 0 -271 20 -398 94 -599 48 -131 48 -113 4 -196 -199 -374 -283 -825 -267 -1425 6 -205 6 -205 -53 -255 -293 -246 -429 -593 -369 -938 58 -331 227 -571 560 -792 374 -249 850 -397 1510 -470 330 -36 315 -33 364 -70 26 -18 55 -43 66 -55 70 -78 165 -67 259 29 52 54 86 68 186 75 1237 94 2026 487 2240 1116 67 194 68 450 5 633 -58 166 -157 311 -302 446 l-86 80 2 298 c4 559 -65 917 -246 1280 -66 131 -66 131 -38 200 40 100 63 174 87 287 33 149 33 565 0 739 -45 242 -94 393 -198 604 -63 128 -90 153 -168 153 -73 0 -100 -32 -136 -160 -51 -182 -114 -320 -218 -480 -67 -103 -244 -281 -325 -329 -58 -34 -58 -34 -215 17 -231 75 -347 96 -602 112 -312 18 -585 -18 -884 -117 -162 -54 -164 -53 -299 62 -222 190 -374 461 -454 812 -13 55 -94 97 -161 82z m66 -598 c78 -165 196 -327 336 -458 47 -44 86 -83 86 -86 0 -3 -33 -27 -72 -53 -115 -76 -256 -193 -350 -293 -48 -50 -89 -91 -92 -91 -19 0 -63 234 -71 380 -12 214 63 690 109 690 7 0 31 -40 54 -89z m3276 49 c9 -22 27 -95 40 -163 60 -295 61 -524 4 -757 -29 -120 -31 -122 -92 -53 -105 119 -234 229 -375 321 l-83 55 69 63 c74 66 187 196 245 279 29 43 128 212 128 220 0 13 32 75 39 75 5 0 16 -18 25 -40z m-1384 -564 c374 -55 706 -195 957 -404 142 -119 333 -334 333 -375 0 -3 -26 -8 -57 -11 -628 -73 -1068 -550 -1308 -1416 -20 -74 -41 -139 -45 -143 -14 -16 -342 -12 -350 4 -5 8 -20 58 -34 112 -219 824 -586 1270 -1164 1416 -42 11 -105 23 -140 27 -34 4 -64 10 -67 14 -13 22 173 233 303 343 272 231 652 396 1002 436 123 14 465 12 570 -3z m-1749 -1065 c351 -89 597 -297 776 -656 90 -179 172 -397 229 -608 34 -128 34 -128 7 -185 -60 -123 -26 -258 98 -395 57 -63 161 -146 202 -160 13 -5 17 -18 17 -56 0 -50 0 -50 -47 -56 -245 -33 -431 -142 -503 -297 -72 -154 -66 -334 13 -417 35 -36 35 -36 40 -161 7 -146 26 -244 62 -325 14 -32 25 -59 25 -62 0 -12 -419 61 -577 101 -806 204 -1242 573 -1243 1054 0 333 214 619 560 746 128 48 163 93 139 179 -21 78 -101 107 -200 72 -71 -25 -69 -31 -69 212 0 396 34 614 143 929 44 125 34 118 151 110 55 -3 135 -15 177 -25z m3213 -6 c87 -207 144 -452 166 -715 12 -142 13 -490 1 -509 -7 -11 -19 -10 -67 8 -110 42 -194 -6 -194 -109 0 -73 27 -98 157 -150 582 -231 720 -879 279 -1316 -249 -246 -684 -433 -1242 -533 -204 -36 -304 -47 -304 -33 0 5 11 39 25 75 28 76 45 195 45 320 0 85 1 90 29 116 49 46 64 88 69 187 10 220 -76 372 -265 467 -56 29 -228 77 -273 77 -51 0 -60 9 -60 56 0 42 2 46 47 72 238 139 356 371 278 547 -24 56 -24 56 1 157 76 306 203 613 341 820 203 305 531 488 890 497 63 1 63 1 77 -34z m-1600 -1555 c21 -4 42 -14 47 -21 19 -31 -67 -136 -142 -174 -69 -36 -125 -18 -205 67 -76 80 -81 121 -16 131 53 8 278 6 316 -3z m32 -816 c143 -29 256 -104 270 -180 13 -69 43 -64 -458 -62 -453 3 -453 3 -456 27 -6 39 6 67 48 110 55 57 121 84 275 115 54 10 253 5 321 -10z m174 -596 c-1 -276 -49 -350 -345 -537 -21 -14 -29 -10 -136 62 -123 83 -167 128 -204 209 -26 57 -45 181 -45 290 l0 68 365 0 365 0 0 -92z"></path>
      <path d="M3915 5241 c-184 -45 -204 -293 -30 -372 54 -25 90 -23 150 5 78 37 115 94 115 176 0 127 -114 220 -235 191z"></path>
      <path d="M6191 5222 c-67 -34 -96 -84 -96 -166 0 -123 75 -200 192 -199 164 1 243 200 130 326 -18 20 -45 41 -60 46 -43 17 -128 13 -166 -7z"></path>
    </g>
</svg>